<?xml version="1.0" standalone="no"?>
<!DOCTYPE svg PUBLIC "-//W3C//DTD SVG 20010904//EN" "http://www.w3.org/TR/2001/REC-SVG-20010904/DTD/svg10.dtd">
<svg xmlns="http://www.w3.org/2000/svg" version="1.0" width="600" height="600" viewBox="130 200 634 634" preserveAspectRatio="xMidYMid meet">

<g transform="translate(0.000000,964.000000) scale(0.100000,-0.100000)" fill="#000000" stroke="none">
<path d="M6720 7366 c-197 -102 -372 -200 -725 -404 -71 -41 -184 -106 -250 -144 -66 -38 -374 -214 -685 -392 -311 -177 -634 -364 -719 -415 -85 -51 -269 -159 -410 -240 -141 -81 -285 -166 -321 -189 -179 -112 -717 -438 -905 -547 -281 -164 -415 -255 -374 -255 9 0 51 9 95 21 43 11 147 37 229 58 83 21 188 50 235 64 290 89 365 113 550 175 187 64 285 101 575 222 55 23 181 75 280 115 99 40 275 113 390 161 116 47 278 115 362 149 83 35 180 79 216 99 35 20 67 36 70 36 16 0 4 -40 -42 -139 -74 -160 -103 -225 -161 -356 -29 -66 -75 -169 -102 -230 -27 -60 -87 -196 -133 -300 -45 -105 -144 -316 -219 -469 -75 -154 -136 -281 -136 -283 0 -13 -324 -599 -392 -708 -68 -109 -324 -494 -376 -565 -240 -326 -366 -485 -486 -610 -56 -58 -157 -167 -225 -243 -68 -75 -127 -137 -130 -137 -3 0 -51 -41 -106 -91 -55 -51 -134 -118 -175 -149 -113 -86 -129 -113 -53 -86 79 28 167 77 336 190 228 151 413 283 517 371 47 39 125 104 174 145 130 108 792 775 905 910 52 63 111 132 131 153 50 55 166 202 336 427 81 107 166 220 189 250 44 57 396 577 452 665 17 28 58 97 91 155 33 58 97 168 142 245 220 370 575 1089 748 1515 213 523 342 870 342 922 0 10 -6 18 -12 17 -7 -1 -110 -51 -228 -113z"/>
</g>
</svg>